<svg xmlns="http://www.w3.org/2000/svg" viewBox="0 0 163 26" shape-rendering="crispEdges" xmlns:c2pa="http://c2pa.org/manifest"><metadata><c2pa:manifest>AAAWgmp1bWIAAAAeanVtZGMycGEAEQAQgAAAqgA4m3EDYzJwYQAAABZcanVtYgAAAEdqdW1kYzJtYQARABCAAACqADibcQN1cm46YzJwYTpiZjAyYzEzNC00ZmFmLTRkMWEtYTdkMC0wNTFkNDA5MmUzZTIAAAADl2p1bWIAAAApanVtZGMyYXMAEQAQgAAAqgA4m3EDYzJwYS5hc3NlcnRpb25zAAAAALxqdW1iAAAARGp1bWRjYm9yABEAEIAAAKoAOJtxE2MycGEuaW5ncmVkaWVudC52MwAAAAAYYzJzaG0diap6dHxpRotu8s6zVXYAAABwY2JvcqNpZGM6Zm9ybWF0bWltYWdlL3N2Zyt4bWxqaW5zdGFuY2VJRHgseG1wOmlpZDpjNWQyNDBhOC1iMDQ0LTQ1NTItOTgxZC0wZjc0MDdlOTBjZjBscmVsYXRpb25zaGlwaHBhcmVudE9mAAAB4mp1bWIAAABBanVtZGNib3IAEQAQgAAAqgA4m3ETYzJwYS5hY3Rpb25zLnYyAAAAABhjMnNoMuZZD7il1ntK8mmKpSm9kQAAAZljYm9yomdhY3Rpb25zgqJmYWN0aW9ua2MycGEub3BlbmVkanBhcmFtZXRlcnOha2luZ3JlZGllbnRzgaJjdXJseC1zZWxmI2p1bWJmPWMycGEuYXNzZXJ0aW9ucy9jMnBhLmluZ3JlZGllbnQudjNkaGFzaFggbRf7rwteRHgFIXPr3cmaM2FlhZzsJNfMOB67ApMy4SGkZmFjdGlvbngdY29tLmFudGhyb3BpYy5jbGF1ZGUucHJvdmlkZWRqcGFyYW1ldGVyc6F4H2NvbS5hbnRocm9waWMub3JpZ2luLWNvbmZpZGVuY2VndW5rbm93bmtkZXNjcmlwdGlvbnhmQ2xhdWRlIHByb3ZpZGVkIHRoaXMgZmlsZSBhdCB0aGUgcmVxdWVzdCBvZiBhIHVzZXIgYW5kIG1heSBoYXZlIGNyZWF0ZWQgb3IgbW9kaWZpZWQgdGhlIGZpbGUgY29udGVudHMubXNvZnR3YXJlQWdlbnShZG5hbWVmQ2xhdWRlcmFsbEFjdGlvbnNJbmNsdWRlZPUAAADIanVtYgAAAEBqdW1kY2JvcgARABCAAACqADibcRNjMnBhLmhhc2guZGF0YQAAAAAYYzJzaG1jniFBZmLnQZObj9Zz3y8AAACAY2JvcqVjYWxnZnNoYTI1NmNwYWRNAAAAAAAAAAAAAAAAAGRoYXNoWCCHqAP1y84URxjMLxdp2COVXmSeuZJP5unRNIgnR1OXkWRuYW1lbmp1bWJmIG1hbmlmZXN0amV4Y2x1c2lvbnOBomVzdGFydBiZZmxlbmd0aBkeBAAAAj5qdW1iAAAAJ2p1bWRjMmNsABEAEIAAAKoAOJtxA2MycGEuY2xhaW0udjIAAAACD2Nib3KlY2FsZ2ZzaGEyNTZpc2lnbmF0dXJleE1zZWxmI2p1bWJmPS9jMnBhL3VybjpjMnBhOmJmMDJjMTM0LTRmYWYtNGQxYS1hN2QwLTA1MWQ0MDkyZTNlMi9jMnBhLnNpZ25hdHVyZWppbnN0YW5jZUlEeCx4bXA6aWlkOjcwZmIwMzNiLTE5YWItNGE1OC1hZGIzLTUzNjc1ZWYxMzU0N3JjcmVhdGVkX2Fzc2VydGlvbnODomN1cmx4LXNlbGYjanVtYmY9YzJwYS5hc3NlcnRpb25zL2MycGEuaW5ncmVkaWVudC52M2RoYXNoWCBtF/uvC15EeAUhc+vdyZozYWWFnOwk18w4HrsCkzLhIaJjdXJseCpzZWxmI2p1bWJmPWMycGEuYXNzZXJ0aW9ucy9jMnBhLmFjdGlvbnMudjJkaGFzaFgg8509LnUO37erU1P7w2peajiaXDQwB79HDju4lfIoAfeiY3VybHgpc2VsZiNqdW1iZj1jMnBhLmFzc2VydGlvbnMvYzJwYS5oYXNoLmRhdGFkaGFzaFggD03htJZhalHri9+bFwIG2FFPu7vBYIxscNgq7kQv6MR0Y2xhaW1fZ2VuZXJhdG9yX2luZm+jZG5hbWVvQW50aHJvcGljIEZpbGVzZ3ZlcnNpb25lMS4wLjBrc3BlY1ZlcnNpb25lMi40LjAAABA4anVtYgAAAChqdW1kYzJjcwARABCAAACqADibcQNjMnBhLnNpZ25hdHVyZQAAABAIY2JvctKEWQISogEmGCFZAgowggIGMIIBjaADAgECAhRA5aAK7sI50L64g/oGQgU9Z1UTADAKBggqhkjOPQQDAzBJMRcwFQYDVQQKEw5BbnRocm9waWMsIFBCQzEuMCwGA1UEAxMlQW50aHJvcGljIENvbnRlbnQgQ3JlZGVudGlhbHMgUm9vdCBDQTAeFw0yNjA4MDcxODQzNTZaFw0yODA4MDYxOTQzNTZaMEQxFzAVBgNVBAoTDkFudGhyb3BpYywgUEJDMSkwJwYDVQQDEyBBbnRocm9waWMgQ2xhdWRlIENvbnRlbnQgU2lnbmluZzBZMBMGByqGSM49AgEGCCqGSM49AwEHA0IABJh6CmvLUBgFFNU0vUKlOVtE6djd17L5SuwX0LemFisBM3dkd/3cyjxFA3Qo5S46fX0/ihY0VZ7mfb9KF703t5OjWDBWMA4GA1UdDwEB/wQEAwIHgDAVBgNVHSUEDjAMBgorBgEEAYPoXgIBMAwGA1UdEwEB/wQCMAAwHwYDVR0jBBgwFoAUzlHiBIFOZFsj+OPEz5o+nMHXXMIwCgYIKoZIzj0EAwMDZwAwZAIwMXMdFJ4BetLLVY7ORuE9noqbbAZOZn/aArXyTwFAZfKrPzxF2vPoJNf1+UCdg1XGAjBwX1zd9WGqYkqmL5SFqw1QySjr1zJfpJM9+1rdDwSPLMOPOjKuiXjoU/pUUeG9RwmhY3BhZFkNngAAAAAAAAAAAAAAAAAAAAAAAAAAAAAAAAAAAAAAAAAAAAAAAAAAAAAAAAAAAAAAAAAAAAAAAAAAAAAAAAAAAAAAAAAAAAAAAAAAAAAAAAAAAAAAAAAAAAAAAAAAAAAAAAAAAAAAAAAAAAAAAAAAAAAAAAAAAAAAAAAAAAAAAAAAAAAAAAAAAAAAAAAAAAAAAAAAAAAAAAAAAAAAAAAAAAAAAAAAAAAAAAAAAAAAAAAAAAAAAAAAAAAAAAAAAAAAAAAAAAAAAAAAAAAAAAAAAAAAAAAAAAAAAAAAAAAAAAAAAAAAAAAAAAAAAAAAAAAAAAAAAAAAAAAAAAAAAAAAAAAAAAAAAAAAAAAAAAAAAAAAAAAAAAAAAAAAAAAAAAAAAAAAAAAAAAAAAAAAAAAAAAAAAAAAAAAAAAAAAAAAAAAAAAAAAAAAAAAAAAAAAAAAAAAAAAAAAAAAAAAAAAAAAAAAAAAAAAAAAAAAAAAAAAAAAAAAAAAAAAAAAAAAAAAAAAAAAAAAAAAAAAAAAAAAAAAAAAAAAAAAAAAAAAAAAAAAAAAAAAAAAAAAAAAAAAAAAAAAAAAAAAAAAAAAAAAAAAAAAAAAAAAAAAAAAAAAAAAAAAAAAAAAAAAAAAAAAAAAAAAAAAAAAAAAAAAAAAAAAAAAAAAAAAAAAAAAAAAAAAAAAAAAAAAAAAAAAAAAAAAAAAAAAAAAAAAAAAAAAAAAAAAAAAAAAAAAAAAAAAAAAAAAAAAAAAAAAAAAAAAAAAAAAAAAAAAAAAAAAAAAAAAAAAAAAAAAAAAAAAAAAAAAAAAAAAAAAAAAAAAAAAAAAAAAAAAAAAAAAAAAAAAAAAAAAAAAAAAAAAAAAAAAAAAAAAAAAAAAAAAAAAAAAAAAAAAAAAAAAAAAAAAAAAAAAAAAAAAAAAAAAAAAAAAAAAAAAAAAAAAAAAAAAAAAAAAAAAAAAAAAAAAAAAAAAAAAAAAAAAAAAAAAAAAAAAAAAAAAAAAAAAAAAAAAAAAAAAAAAAAAAAAAAAAAAAAAAAAAAAAAAAAAAAAAAAAAAAAAAAAAAAAAAAAAAAAAAAAAAAAAAAAAAAAAAAAAAAAAAAAAAAAAAAAAAAAAAAAAAAAAAAAAAAAAAAAAAAAAAAAAAAAAAAAAAAAAAAAAAAAAAAAAAAAAAAAAAAAAAAAAAAAAAAAAAAAAAAAAAAAAAAAAAAAAAAAAAAAAAAAAAAAAAAAAAAAAAAAAAAAAAAAAAAAAAAAAAAAAAAAAAAAAAAAAAAAAAAAAAAAAAAAAAAAAAAAAAAAAAAAAAAAAAAAAAAAAAAAAAAAAAAAAAAAAAAAAAAAAAAAAAAAAAAAAAAAAAAAAAAAAAAAAAAAAAAAAAAAAAAAAAAAAAAAAAAAAAAAAAAAAAAAAAAAAAAAAAAAAAAAAAAAAAAAAAAAAAAAAAAAAAAAAAAAAAAAAAAAAAAAAAAAAAAAAAAAAAAAAAAAAAAAAAAAAAAAAAAAAAAAAAAAAAAAAAAAAAAAAAAAAAAAAAAAAAAAAAAAAAAAAAAAAAAAAAAAAAAAAAAAAAAAAAAAAAAAAAAAAAAAAAAAAAAAAAAAAAAAAAAAAAAAAAAAAAAAAAAAAAAAAAAAAAAAAAAAAAAAAAAAAAAAAAAAAAAAAAAAAAAAAAAAAAAAAAAAAAAAAAAAAAAAAAAAAAAAAAAAAAAAAAAAAAAAAAAAAAAAAAAAAAAAAAAAAAAAAAAAAAAAAAAAAAAAAAAAAAAAAAAAAAAAAAAAAAAAAAAAAAAAAAAAAAAAAAAAAAAAAAAAAAAAAAAAAAAAAAAAAAAAAAAAAAAAAAAAAAAAAAAAAAAAAAAAAAAAAAAAAAAAAAAAAAAAAAAAAAAAAAAAAAAAAAAAAAAAAAAAAAAAAAAAAAAAAAAAAAAAAAAAAAAAAAAAAAAAAAAAAAAAAAAAAAAAAAAAAAAAAAAAAAAAAAAAAAAAAAAAAAAAAAAAAAAAAAAAAAAAAAAAAAAAAAAAAAAAAAAAAAAAAAAAAAAAAAAAAAAAAAAAAAAAAAAAAAAAAAAAAAAAAAAAAAAAAAAAAAAAAAAAAAAAAAAAAAAAAAAAAAAAAAAAAAAAAAAAAAAAAAAAAAAAAAAAAAAAAAAAAAAAAAAAAAAAAAAAAAAAAAAAAAAAAAAAAAAAAAAAAAAAAAAAAAAAAAAAAAAAAAAAAAAAAAAAAAAAAAAAAAAAAAAAAAAAAAAAAAAAAAAAAAAAAAAAAAAAAAAAAAAAAAAAAAAAAAAAAAAAAAAAAAAAAAAAAAAAAAAAAAAAAAAAAAAAAAAAAAAAAAAAAAAAAAAAAAAAAAAAAAAAAAAAAAAAAAAAAAAAAAAAAAAAAAAAAAAAAAAAAAAAAAAAAAAAAAAAAAAAAAAAAAAAAAAAAAAAAAAAAAAAAAAAAAAAAAAAAAAAAAAAAAAAAAAAAAAAAAAAAAAAAAAAAAAAAAAAAAAAAAAAAAAAAAAAAAAAAAAAAAAAAAAAAAAAAAAAAAAAAAAAAAAAAAAAAAAAAAAAAAAAAAAAAAAAAAAAAAAAAAAAAAAAAAAAAAAAAAAAAAAAAAAAAAAAAAAAAAAAAAAAAAAAAAAAAAAAAAAAAAAAAAAAAAAAAAAAAAAAAAAAAAAAAAAAAAAAAAAAAAAAAAAAAAAAAAAAAAAAAAAAAAAAAAAAAAAAAAAAAAAAAAAAAAAAAAAAAAAAAAAAAAAAAAAAAAAAAAAAAAAAAAAAAAAAAAAAAAAAAAAAAAAAAAAAAAAAAAAAAAAAAAAAAAAAAAAAAAAAAAAAAAAAAAAAAAAAAAAAAAAAAAAAAAAAAAAAAAAAAAAAAAAAAAAAAAAAAAAAAAAAAAAAAAAAAAAAAAAAAAAAAAAAAAAAAAAAAAAAAAAAAAAAAAAAAAAAAAAAAAAAAAAAAAAAAAAAAAAAAAAAAAAAAAAAAAAAAAAAAAAAAAAAAAAAAAAAAAAAAAAAAAAAAAAAAAAAAAAAAAAAAAAAAAAAAAAAAAAAAAAAAAAAAAAAAAAAAAAAAAAAAAAAAAAAAAAAAAAAAAAAAAAAAAAAAAAAAAAAAAAAAAAAAAAAAAAAAAAAAAAAAAAAAAAAAAAAAAAAAAAAAAAAAAAAAAAAAAAAAAAAAAAAAAAAAAAAAAAAAAAAAAAAAAAAAAAAAAAAAAAAAAAAAAAAAAAAAAAAAAAAAAAAAAAAAAAAAAAAAAAAAAAAAAAAAAAAAAAAAAAAAAAAAAAAAAAAAAAAAAAAAAAAAAAAAAAAAAAAAAAAAAAAAAAAAAAAAAAAAAAAAAAAAAAAAAAAAAAAAAAAAAAAAAAAAAAAAAAAAAAAAAAAAAAAAAAAAAAAAAAAAAAAAAAAAAAAAAAAAAAAAAAAAAAAAAAAAAAAAAAAAAAAAAAAAAAAAAAAAAAAAAAAAAAAAAAAAAAAAAAAAAAAAAAAAAAAAAAAAAAAAAAAAAAAAAAAAAAAAAAAAAAAAAAAAAAAAAAAAAAAAAAAAAAAAAAAAAAAAAAAAAAAAAAAAAAAAAAAAAAAAAAAAAAAAAAAAAAAAAAAAAAAAAAAAAAAAAAAAAAAAAAAAAAAAAAAAAAAAAAAAAAAAAAAAAAAAAAAAAAAAAAAAAAAAAAAAAAAAAAAAAAAAAAAAAAAAAAAAAAAAAAAAAAAAAAAAAAAAAAAAAAAAAAAAAAAAAAAAAAAAAAAAAAAAAAAAAAAAAAAAAAAAAAAAAAAAAAAAAAAAAAAAAAAAAAAAAAAAAAAAAAAAAAAAAAAAAAAAAAAAAAAAAAAAAAAAAAAAAAAAAAAAAAAAAAAAAAAAAAAAAAAAAAAAAAAAAAAAAAAAAAAAAAAAAAAAAAAAAAAAAAAAAAAAAAAAAAAAAAAAAAAAAAAAAAAAAAAAAAAAAAAAAAAAAAAAAAAAAAAAAAAAAAAAAAAAAAAAAAAAAAAAAAAAAAAAAAAAAAAAAAAAAAAAAAAAAAAAAAAAAAAAAAAAAAAAAAAAAAAAAAAAAAAAAAAAAAAAAAAAAAAAAAAAAAAAAAAAAAAAAAAAAAAAAAAAAAAAAAAAAAAAAAAAAAAAAAAAAAAAAAAAAAAAAAAAAAAAAAAAAAAAAAAAAAAAAAAAAAAAAAAAAAAAAAAAAAAAAAAAAAAAAAAAAAAAAAAAAAAAAAAAAAAAAAAAAAAAAAAAAAAAAAAAAAAAAAAAAAAAAAAAAAAAAAAAAAAAAAAAAAAAAAAAAAAAAAAAAAAAAAAAAAAAAAAAAAAAAAAAAAAAAAAAAAAAAAAAAAAAAAAAAAAAAAAAAAAAAAAAAAAAAAAAAAAAAAAAAAAAAAAAAAAAAAAAAAAAAAAAAAAAAAAAAAAAAAAAAAAAAAAAAAAAAAAAAAAAAAAAAAAAAAAAAAAAAAAAAAAAAAAAAAAAAAAAAAAAAAAAAAAAAAAAAAAAAAAAAAAAAAAAAAAAAAAAAAAAAAAAAAAAAAAAAAAAAAAAAAAAAAAAAAAAAAAAAAAAAAAAAAAAAAAAAAAAAAAAAAAAAAAAAAAAAAAAAAAAAAAAAAAAAAAAAAAAAAAAAAAAAAAAAAAAAAAAAAAAAAAAAAAAAAAAAAAAAAAAAAAAAAAAAAAAAAAAAAAAAAAAAAAAAAAAAAAAAAAAAAAAAAAAAPZYQH8zU1+FTJqKukwhy9HDlI3w0j3+Pw/lJj1OFvZ5UtqfNyG/Tt37kPXPyRo+PDAogE4hTYQSf0icAzvqpJfk48c=</c2pa:manifest></metadata><path fill="#fff" d="M0 0h7v1h-7zM20 0h7v1h-7zM31 0h21v1h-21zM65 0h9v1h-9zM95 0h9v1h-9zM115 0h21v1h-21zM140 0h14v1h-14zM0 1h8v1h-8zM20 1h7v1h-7zM31 1h21v1h-21zM62 1h15v1h-15zM92 1h15v1h-15zM115 1h21v1h-21zM140 1h17v1h-17zM0 2h8v1h-8zM19 2h8v1h-8zM31 2h21v1h-21zM60 2h18v1h-18zM90 2h18v1h-18zM115 2h21v1h-21zM140 2h19v1h-19zM0 3h8v1h-8zM19 3h8v1h-8zM31 3h21v1h-21zM59 3h20v1h-20zM89 3h20v1h-20zM115 3h21v1h-21zM140 3h20v1h-20zM0 4h9v1h-9zM18 4h9v1h-9zM31 4h6v1h-6zM58 4h8v1h-8zM72 4h8v1h-8zM88 4h8v1h-8zM102 4h8v1h-8zM115 4h6v1h-6zM140 4h6v1h-6zM153 4h8v1h-8zM0 5h4v1h-4zM5 5h4v1h-4zM18 5h4v1h-4zM23 5h4v1h-4zM31 5h6v1h-6zM57 5h7v1h-7zM74 5h7v1h-7zM87 5h7v1h-7zM104 5h7v1h-7zM115 5h6v1h-6zM140 5h6v1h-6zM155 5h7v1h-7zM0 6h4v1h-4zM5 6h4v1h-4zM18 6h4v1h-4zM23 6h4v1h-4zM31 6h6v1h-6zM57 6h6v1h-6zM75 6h6v1h-6zM87 6h6v1h-6zM105 6h6v1h-6zM115 6h6v1h-6zM140 6h6v1h-6zM156 6h6v1h-6zM0 7h4v1h-4zM5 7h5v1h-5zM17 7h5v1h-5zM23 7h4v1h-4zM31 7h6v1h-6zM56 7h6v1h-6zM76 7h2v1h-2zM86 7h6v1h-6zM106 7h2v1h-2zM115 7h6v1h-6zM140 7h6v1h-6zM157 7h6v1h-6zM0 8h4v1h-4zM5 8h5v1h-5zM17 8h10v1h-10zM31 8h6v1h-6zM56 8h6v1h-6zM86 8h6v1h-6zM115 8h6v1h-6zM140 8h6v1h-6zM157 8h6v1h-6zM0 9h5v1h-5zM6 9h4v1h-4zM17 9h4v1h-4zM22 9h5v1h-5zM31 9h6v1h-6zM56 9h5v1h-5zM86 9h5v1h-5zM115 9h6v1h-6zM140 9h6v1h-6zM158 9h5v1h-5zM0 10h5v1h-5zM6 10h5v1h-5zM16 10h5v1h-5zM22 10h5v1h-5zM31 10h20v1h-20zM56 10h5v1h-5zM86 10h5v1h-5zM115 10h20v1h-20zM140 10h6v1h-6zM158 10h5v1h-5zM0 11h5v1h-5zM6 11h5v1h-5zM16 11h5v1h-5zM22 11h5v1h-5zM31 11h20v1h-20zM56 11h5v1h-5zM86 11h5v1h-5zM115 11h20v1h-20zM140 11h6v1h-6zM158 11h5v1h-5zM0 12h5v1h-5zM7 12h4v1h-4zM16 12h4v1h-4zM22 12h5v1h-5zM31 12h20v1h-20zM56 12h5v1h-5zM70 12h12v1h-12zM86 12h5v1h-5zM100 12h12v1h-12zM115 12h20v1h-20zM140 12h6v1h-6zM158 12h5v1h-5zM0 13h5v1h-5zM7 13h5v1h-5zM15 13h5v1h-5zM22 13h5v1h-5zM31 13h20v1h-20zM56 13h5v1h-5zM70 13h12v1h-12zM86 13h5v1h-5zM100 13h12v1h-12zM115 13h20v1h-20zM140 13h6v1h-6zM158 13h5v1h-5zM0 14h5v1h-5zM7 14h5v1h-5zM15 14h5v1h-5zM22 14h5v1h-5zM31 14h6v1h-6zM56 14h5v1h-5zM70 14h12v1h-12zM86 14h5v1h-5zM100 14h12v1h-12zM115 14h6v1h-6zM140 14h6v1h-6zM158 14h5v1h-5zM0 15h5v1h-5zM8 15h4v1h-4zM15 15h4v1h-4zM22 15h5v1h-5zM31 15h6v1h-6zM56 15h5v1h-5zM70 15h12v1h-12zM86 15h5v1h-5zM100 15h12v1h-12zM115 15h6v1h-6zM140 15h6v1h-6zM158 15h5v1h-5zM0 16h5v1h-5zM8 16h5v1h-5zM14 16h5v1h-5zM22 16h5v1h-5zM31 16h6v1h-6zM56 16h6v1h-6zM77 16h5v1h-5zM86 16h6v1h-6zM107 16h5v1h-5zM115 16h6v1h-6zM140 16h6v1h-6zM157 16h6v1h-6zM0 17h5v1h-5zM8 17h5v1h-5zM14 17h5v1h-5zM22 17h5v1h-5zM31 17h6v1h-6zM56 17h6v1h-6zM77 17h5v1h-5zM86 17h6v1h-6zM107 17h5v1h-5zM115 17h6v1h-6zM140 17h6v1h-6zM157 17h6v1h-6zM0 18h5v1h-5zM9 18h4v1h-4zM14 18h4v1h-4zM22 18h5v1h-5zM31 18h6v1h-6zM56 18h6v1h-6zM77 18h5v1h-5zM86 18h6v1h-6zM107 18h5v1h-5zM115 18h6v1h-6zM140 18h6v1h-6zM157 18h5v1h-5zM0 19h5v1h-5zM9 19h9v1h-9zM22 19h5v1h-5zM31 19h6v1h-6zM57 19h6v1h-6zM77 19h5v1h-5zM87 19h6v1h-6zM107 19h5v1h-5zM115 19h6v1h-6zM140 19h6v1h-6zM156 19h6v1h-6zM0 20h5v1h-5zM10 20h8v1h-8zM22 20h5v1h-5zM31 20h6v1h-6zM57 20h7v1h-7zM75 20h7v1h-7zM87 20h7v1h-7zM105 20h7v1h-7zM115 20h6v1h-6zM140 20h6v1h-6zM155 20h6v1h-6zM0 21h5v1h-5zM10 21h7v1h-7zM22 21h5v1h-5zM31 21h6v1h-6zM58 21h8v1h-8zM73 21h9v1h-9zM88 21h8v1h-8zM103 21h9v1h-9zM115 21h6v1h-6zM140 21h6v1h-6zM153 21h8v1h-8zM0 22h5v1h-5zM10 22h7v1h-7zM22 22h5v1h-5zM31 22h22v1h-22zM59 22h21v1h-21zM89 22h21v1h-21zM115 22h22v1h-22zM140 22h20v1h-20zM0 23h5v1h-5zM11 23h5v1h-5zM22 23h5v1h-5zM31 23h22v1h-22zM60 23h19v1h-19zM90 23h19v1h-19zM115 23h22v1h-22zM140 23h19v1h-19zM0 24h5v1h-5zM11 24h5v1h-5zM22 24h5v1h-5zM31 24h22v1h-22zM62 24h15v1h-15zM92 24h15v1h-15zM115 24h22v1h-22zM140 24h17v1h-17zM0 25h5v1h-5zM11 25h5v1h-5zM22 25h5v1h-5zM31 25h22v1h-22zM64 25h10v1h-10zM94 25h10v1h-10zM115 25h22v1h-22zM140 25h15v1h-15z"/></svg>
